<?xml version="1.0" encoding="UTF-8" standalone="no"?>
<!-- Created with Inkscape (http://www.inkscape.org/) -->

<svg
   width="243.60364mm"
   height="132.47374mm"
   viewBox="0 0 243.60364 132.47374"
   version="1.1"
   id="svg1"
   xml:space="preserve"
   xmlns:xlink="http://www.w3.org/1999/xlink"
   xmlns="http://www.w3.org/2000/svg"
   xmlns:svg="http://www.w3.org/2000/svg"><defs
     id="defs1"><g
       id="g32-5"><g
         id="glyph-0-0-05"><path
           d="m 1.59375,0.0625 c -0.429688,0 -0.75,-0.164062 -0.96875,-0.5 C 0.40625,-0.769531 0.296875,-1.289062 0.296875,-2 c 0,-0.707031 0.109375,-1.226562 0.328125,-1.5625 0.21875,-0.332031 0.539062,-0.5 0.96875,-0.5 0.425781,0 0.75,0.167969 0.96875,0.5 0.21875,0.335938 0.328125,0.855469 0.328125,1.5625 0,0.710938 -0.109375,1.230469 -0.328125,1.5625 -0.21875,0.335938 -0.542969,0.5 -0.96875,0.5 z m 0,-0.4375 c 0.269531,0 0.460938,-0.128906 0.578125,-0.390625 0.125,-0.269531 0.1875,-0.679687 0.1875,-1.234375 0,-0.550781 -0.0625,-0.957031 -0.1875,-1.21875 C 2.054688,-3.488281 1.863281,-3.625 1.59375,-3.625 1.320312,-3.625 1.125,-3.488281 1,-3.21875 0.882812,-2.957031 0.828125,-2.550781 0.828125,-2 0.828125,-1.445312 0.882812,-1.035156 1,-0.765625 1.125,-0.503906 1.320312,-0.375 1.59375,-0.375 Z m 0,0"
           id="path1-25" /></g><g
         id="glyph-0-1-20"><path
           d="m 1.671875,0.0625 c -0.28125,0 -0.53125,-0.06640625 -0.75,-0.203125 -0.21875,-0.144531 -0.398437,-0.363281 -0.53125,-0.65625 -0.125,-0.300781 -0.1875,-0.691406 -0.1875,-1.171875 0,-0.476562 0.0625,-0.867188 0.1875,-1.171875 0.125,-0.3125 0.296875,-0.539063 0.515625,-0.6875 0.21875,-0.144531 0.472656,-0.21875 0.765625,-0.21875 0.320313,0 0.59375,0.085937 0.8125,0.25 0.21875,0.167969 0.359375,0.417969 0.421875,0.75 h -0.5 C 2.363281,-3.234375 2.28125,-3.375 2.15625,-3.46875 2.03125,-3.570312 1.867188,-3.625 1.671875,-3.625 c -0.292969,0 -0.527344,0.136719 -0.703125,0.40625 -0.167969,0.261719 -0.25,0.679688 -0.25,1.25 v 0.15625 c 0,0.355469 0.039062,0.636719 0.125,0.84375 0.09375,0.210938 0.210938,0.359375 0.359375,0.453125 0.144531,0.09375 0.300781,0.140625 0.46875,0.140625 0.269531,0 0.46875,-0.082031 0.59375,-0.25 0.125,-0.164062 0.1875,-0.375 0.1875,-0.625 0,-0.25 -0.0625,-0.445312 -0.1875,-0.59375 -0.125,-0.144531 -0.304687,-0.21875 -0.53125,-0.21875 -0.261719,0 -0.492187,0.0625 -0.6875,0.1875 -0.199219,0.125 -0.351563,0.273438 -0.453125,0.4375 l -0.0625,-0.375 c 0.09375,-0.125 0.203125,-0.238281 0.328125,-0.34375 0.125,-0.101562 0.265625,-0.179688 0.421875,-0.234375 0.15625,-0.0625 0.332031,-0.09375 0.53125,-0.09375 0.21875,0 0.414062,0.046875 0.59375,0.140625 0.175781,0.09375 0.316406,0.230469 0.421875,0.40625 0.101563,0.179688 0.15625,0.402344 0.15625,0.671875 0,0.261719 -0.054687,0.492187 -0.15625,0.6875 C 2.722656,-0.378906 2.570312,-0.222656 2.375,-0.109375 2.1875,0.00390625 1.953125,0.0625 1.671875,0.0625 Z m 0,0"
           id="path2-67" /></g><g
         id="glyph-0-2-28"><path
           d="M 1.5625,0 V -3.390625 C 1.5,-3.316406 1.421875,-3.242188 1.328125,-3.171875 1.234375,-3.097656 1.117188,-3.03125 0.984375,-2.96875 0.847656,-2.914062 0.695312,-2.878906 0.53125,-2.859375 V -3.3125 c 0.164062,-0.03125 0.316406,-0.082031 0.453125,-0.15625 0.144531,-0.082031 0.269531,-0.171875 0.375,-0.265625 0.101563,-0.101563 0.1875,-0.195313 0.25,-0.28125 h 0.46875 V 0 Z M 0.703125,0 v -0.4375 h 2.15625 V 0 Z m 0,0"
           id="path3-00" /></g><g
         id="glyph-0-3-6"><path
           d="m 0.21875,0 v -0.40625 l 1.390625,-1.265625 c 0.257813,-0.238281 0.441406,-0.445313 0.546875,-0.625 0.113281,-0.1875 0.171875,-0.382813 0.171875,-0.59375 0,-0.207031 -0.058594,-0.378906 -0.171875,-0.515625 C 2.039062,-3.539062 1.859375,-3.609375 1.609375,-3.609375 1.328125,-3.609375 1.125,-3.53125 1,-3.375 0.875,-3.226562 0.8125,-3.046875 0.8125,-2.828125 h -0.5 c 0,-0.238281 0.046875,-0.453125 0.140625,-0.640625 0.09375,-0.1875 0.234375,-0.328125 0.421875,-0.421875 0.195312,-0.101563 0.441406,-0.15625 0.734375,-0.15625 0.257813,0 0.484375,0.046875 0.671875,0.140625 0.1875,0.09375 0.328125,0.230469 0.421875,0.40625 0.09375,0.167969 0.140625,0.367188 0.140625,0.59375 0,0.210938 -0.042969,0.402344 -0.125,0.578125 C 2.632812,-2.160156 2.523438,-2 2.390625,-1.84375 c -0.125,0.148438 -0.273437,0.292969 -0.4375,0.4375 L 0.90625,-0.4375 H 2.953125 V 0 Z m 0,0"
           id="path4-83" /></g><g
         id="glyph-0-4-0"><path
           d="M 1.59375,0.0625 C 1.414062,0.0625 1.242188,0.0390625 1.078125,0 0.910156,-0.0507812 0.765625,-0.125 0.640625,-0.21875 0.515625,-0.320312 0.414062,-0.445312 0.34375,-0.59375 0.269531,-0.738281 0.234375,-0.910156 0.234375,-1.109375 c 0,-0.257813 0.070313,-0.476563 0.21875,-0.65625 0.15625,-0.175781 0.347656,-0.289063 0.578125,-0.34375 C 0.832031,-2.171875 0.675781,-2.28125 0.5625,-2.4375 0.457031,-2.601562 0.40625,-2.800781 0.40625,-3.03125 c 0,-0.238281 0.054688,-0.429688 0.171875,-0.578125 0.113281,-0.15625 0.257813,-0.269531 0.4375,-0.34375 0.1875,-0.070313 0.378906,-0.109375 0.578125,-0.109375 0.195312,0 0.382812,0.039062 0.5625,0.109375 0.1875,0.074219 0.335938,0.1875 0.453125,0.34375 0.113281,0.148437 0.171875,0.339844 0.171875,0.578125 0,0.242188 -0.070312,0.4375 -0.203125,0.59375 -0.125,0.15625 -0.277344,0.265625 -0.453125,0.328125 0.238281,0.054687 0.429688,0.167969 0.578125,0.34375 0.15625,0.167969 0.234375,0.386719 0.234375,0.65625 0,0.261719 -0.0625,0.480469 -0.1875,0.65625 C 2.632812,-0.285156 2.472656,-0.15625 2.265625,-0.0625 2.054688,0.0195312 1.832031,0.0625 1.59375,0.0625 Z m 0,-0.4375 c 0.226562,0 0.425781,-0.0625 0.59375,-0.1875 0.175781,-0.125 0.265625,-0.316406 0.265625,-0.578125 0,-0.164063 -0.042969,-0.304687 -0.125,-0.421875 -0.074219,-0.113281 -0.179687,-0.195312 -0.3125,-0.25 C 1.890625,-1.875 1.75,-1.898438 1.59375,-1.890625 1.457031,-1.898438 1.320312,-1.875 1.1875,-1.8125 1.0625,-1.757812 0.957031,-1.675781 0.875,-1.5625 0.789062,-1.445312 0.75,-1.304688 0.75,-1.140625 0.75,-0.878906 0.832031,-0.6875 1,-0.5625 c 0.164062,0.125 0.363281,0.1875 0.59375,0.1875 z m 0,-1.9375 c 0.125,0 0.238281,-0.023438 0.34375,-0.078125 0.101562,-0.050781 0.1875,-0.125 0.25,-0.21875 C 2.257812,-2.710938 2.296875,-2.84375 2.296875,-3 c 0,-0.21875 -0.070313,-0.378906 -0.203125,-0.484375 -0.136719,-0.101563 -0.304688,-0.15625 -0.5,-0.15625 -0.117188,0 -0.230469,0.027344 -0.34375,0.078125 -0.105469,0.042969 -0.195312,0.109375 -0.265625,0.203125 -0.0625,0.09375 -0.09375,0.214844 -0.09375,0.359375 0,0.15625 0.03125,0.289062 0.09375,0.390625 0.070313,0.09375 0.160156,0.167969 0.265625,0.21875 0.113281,0.054687 0.226562,0.078125 0.34375,0.078125 z m 0,0"
           id="path5-64" /></g><g
         id="glyph-0-5-37"><path
           d="m 2.015625,0 v -0.8125 h -1.90625 v -0.453125 l 1.90625,-2.765625 h 0.5 V -1.25 H 3.0625 v 0.4375 H 2.515625 V 0 Z M 0.59375,-1.25 h 1.4375 v -2.078125 z m 0,0"
           id="path6-05" /></g><g
         id="glyph-0-6-20"><path
           d="m 1.609375,0.0625 c -0.417969,0 -0.75,-0.109375 -1,-0.328125 -0.25,-0.21875 -0.375,-0.53125 -0.375,-0.9375 H 0.71875 c 0,0.25 0.078125,0.453125 0.234375,0.609375 0.15625,0.148438 0.375,0.21875 0.65625,0.21875 0.257813,0 0.460937,-0.0625 0.609375,-0.1875 0.144531,-0.125 0.21875,-0.316406 0.21875,-0.578125 0,-0.257813 -0.085938,-0.445313 -0.25,-0.5625 -0.15625,-0.125 -0.382812,-0.1875 -0.671875,-0.1875 H 1.28125 V -2.3125 h 0.25 C 1.789062,-2.3125 1.984375,-2.375 2.109375,-2.5 2.242188,-2.632812 2.3125,-2.804688 2.3125,-3.015625 2.3125,-3.222656 2.242188,-3.375 2.109375,-3.46875 1.984375,-3.570312 1.8125,-3.625 1.59375,-3.625 c -0.242188,0 -0.429688,0.070312 -0.5625,0.203125 -0.136719,0.136719 -0.203125,0.308594 -0.203125,0.515625 h -0.5 c 0,-0.226562 0.050781,-0.425781 0.15625,-0.59375 C 0.597656,-3.675781 0.75,-3.8125 0.9375,-3.90625 1.125,-4.007812 1.34375,-4.0625 1.59375,-4.0625 c 0.226562,0 0.429688,0.042969 0.609375,0.125 0.1875,0.074219 0.332031,0.1875 0.4375,0.34375 0.113281,0.148438 0.171875,0.328125 0.171875,0.546875 0,0.242187 -0.070312,0.4375 -0.203125,0.59375 -0.125,0.15625 -0.296875,0.265625 -0.515625,0.328125 0.25,0.042969 0.453125,0.152344 0.609375,0.328125 0.164063,0.167969 0.25,0.390625 0.25,0.671875 0,0.375 -0.125,0.667969 -0.375,0.875 -0.242187,0.2109375 -0.5625,0.3125 -0.96875,0.3125 z m 0,0"
           id="path7-7" /></g><g
         id="glyph-0-7-5"><path
           d="M 1.03125,0 0,-3.109375 h 0.53125 l 0.78125,2.625 0.78125,-2.625 h 0.5 L 1.578125,0 Z m 0,0"
           id="path8-61" /></g><g
         id="glyph-0-8-81"><path
           d="m 0.8125,0.03125 c -0.105469,0 -0.195312,-0.03515625 -0.265625,-0.109375 -0.0625,-0.070313 -0.09375,-0.160156 -0.09375,-0.265625 0,-0.113281 0.03125,-0.203125 0.09375,-0.265625 0.070313,-0.070313 0.160156,-0.109375 0.265625,-0.109375 0.113281,0 0.203125,0.039062 0.265625,0.109375 0.070313,0.0625 0.109375,0.152344 0.109375,0.265625 0,0.105469 -0.039062,0.195312 -0.109375,0.265625 C 1.015625,-0.00390625 0.925781,0.03125 0.8125,0.03125 Z m 0,0"
           id="path9-85" /></g><g
         id="glyph-1-0-65"><path
           d="M 1.21875,0 V -4.078125 H 0.046875 V -4.5625 H 2.96875 v 0.484375 H 1.8125 V 0 Z m 0,0"
           id="path10-92" /></g><g
         id="glyph-1-1-65"><path
           d="M 0.5,0 V -3.4375 H 1.046875 V 0 Z m 0.28125,-3.953125 c -0.105469,0 -0.1875,-0.03125 -0.25,-0.09375 -0.0625,-0.0625 -0.09375,-0.132813 -0.09375,-0.21875 0,-0.09375 0.03125,-0.171875 0.09375,-0.234375 0.0625,-0.0625 0.144531,-0.09375 0.25,-0.09375 0.101562,0 0.179688,0.03125 0.234375,0.09375 0.0625,0.0625 0.09375,0.140625 0.09375,0.234375 0,0.085937 -0.03125,0.15625 -0.09375,0.21875 -0.054687,0.0625 -0.132813,0.09375 -0.234375,0.09375 z m 0,0"
           id="path11-23" /></g><g
         id="glyph-1-2-21"><path
           d="m 0.5,0 v -3.4375 h 0.53125 l 0.015625,0.5 c 0.09375,-0.132812 0.222656,-0.257812 0.390625,-0.375 0.175781,-0.113281 0.390625,-0.171875 0.640625,-0.171875 0.320313,0 0.554687,0.105469 0.703125,0.3125 0.15625,0.199219 0.234375,0.476563 0.234375,0.828125 V 0 H 2.46875 v -2.25 c 0,-0.144531 -0.015625,-0.273438 -0.046875,-0.390625 -0.03125,-0.125 -0.085937,-0.21875 -0.15625,-0.28125 -0.074219,-0.070313 -0.1875,-0.109375 -0.34375,-0.109375 -0.199219,0 -0.371094,0.058594 -0.515625,0.171875 -0.148438,0.105469 -0.265625,0.21875 -0.359375,0.34375 V 0 Z m 3.921875,0 v -2.25 c 0,-0.144531 -0.015625,-0.273438 -0.046875,-0.390625 -0.023438,-0.125 -0.074219,-0.21875 -0.15625,-0.28125 C 4.144531,-2.992188 4.03125,-3.03125 3.875,-3.03125 c -0.199219,0 -0.371094,0.058594 -0.515625,0.171875 C 3.210938,-2.753906 3.09375,-2.640625 3,-2.515625 l -0.078125,-0.375 C 3.035156,-3.035156 3.1875,-3.171875 3.375,-3.296875 c 0.1875,-0.125 0.40625,-0.1875 0.65625,-0.1875 0.320312,0 0.554688,0.105469 0.703125,0.3125 0.15625,0.199219 0.234375,0.480469 0.234375,0.84375 V 0 Z m 0,0"
           id="path12-22" /></g><g
         id="glyph-1-3-8"><path
           d="m 1.765625,0.046875 c -0.335937,0 -0.605469,-0.0703125 -0.8125,-0.21875 C 0.742188,-0.316406 0.585938,-0.519531 0.484375,-0.78125 0.378906,-1.039062 0.328125,-1.335938 0.328125,-1.671875 0.328125,-2.035156 0.375,-2.351562 0.46875,-2.625 0.570312,-2.90625 0.722656,-3.117188 0.921875,-3.265625 1.128906,-3.421875 1.390625,-3.5 1.703125,-3.5 c 0.414063,0 0.738281,0.148438 0.96875,0.4375 0.238281,0.28125 0.359375,0.695312 0.359375,1.234375 0,0.03125 0,0.070313 0,0.109375 0,0.042969 0,0.074219 0,0.09375 H 0.875 c 0,0.242188 0.03125,0.460938 0.09375,0.65625 0.0625,0.1875 0.15625,0.339844 0.28125,0.453125 0.132812,0.105469 0.304688,0.15625 0.515625,0.15625 0.207031,0 0.363281,-0.039063 0.46875,-0.125 C 2.347656,-0.578125 2.425781,-0.707031 2.46875,-0.875 h 0.546875 c -0.03125,0.199219 -0.101563,0.367188 -0.203125,0.5 -0.105469,0.136719 -0.246094,0.242188 -0.421875,0.3125 -0.179687,0.0703125 -0.386719,0.109375 -0.625,0.109375 z M 0.875,-2.015625 H 2.5 C 2.488281,-2.367188 2.414062,-2.632812 2.28125,-2.8125 2.144531,-2.988281 1.953125,-3.078125 1.703125,-3.078125 c -0.242187,0 -0.433594,0.089844 -0.578125,0.265625 -0.136719,0.167969 -0.21875,0.433594 -0.25,0.796875 z m 0,0"
           id="path13-88" /></g><g
         id="glyph-1-4-7" /><g
         id="glyph-1-5-40"><path
           d="M 1.25,1.203125 C 1.082031,0.890625 0.9375,0.582031 0.8125,0.28125 0.695312,-0.0078125 0.609375,-0.3125 0.546875,-0.625 c -0.0625,-0.320312 -0.09375,-0.664062 -0.09375,-1.03125 0,-0.351562 0.03125,-0.695312 0.09375,-1.03125 0.0625,-0.332031 0.148437,-0.65625 0.265625,-0.96875 0.125,-0.3125 0.269531,-0.625 0.4375,-0.9375 h 0.4375 c -0.230469,0.460938 -0.40625,0.949219 -0.53125,1.46875 -0.117188,0.523438 -0.171875,1.046875 -0.171875,1.578125 0,0.480469 0.0625,0.960937 0.1875,1.4375 0.132813,0.476563 0.304687,0.914063 0.515625,1.3125 z m 0,0"
           id="path14-05" /></g><g
         id="glyph-1-6-9"><path
           d="M 1.5625,0.046875 C 1.394531,0.046875 1.238281,0.03125 1.09375,0 0.945312,-0.03125 0.816406,-0.0820312 0.703125,-0.15625 0.585938,-0.226562 0.492188,-0.320312 0.421875,-0.4375 0.359375,-0.5625 0.320312,-0.707031 0.3125,-0.875 h 0.515625 c 0.019531,0.1875 0.09375,0.324219 0.21875,0.40625 0.132813,0.074219 0.3125,0.109375 0.53125,0.109375 0.1875,0 0.335937,-0.039063 0.453125,-0.125 0.125,-0.082031 0.1875,-0.222656 0.1875,-0.421875 0,-0.175781 -0.058594,-0.3125 -0.171875,-0.40625 C 1.941406,-1.40625 1.742188,-1.488281 1.453125,-1.5625 1.222656,-1.625 1.03125,-1.695312 0.875,-1.78125 0.71875,-1.863281 0.597656,-1.96875 0.515625,-2.09375 c -0.085937,-0.125 -0.125,-0.285156 -0.125,-0.484375 0,-0.144531 0.023437,-0.273437 0.078125,-0.390625 0.0625,-0.113281 0.144531,-0.207031 0.25,-0.28125 C 0.820312,-3.332031 0.941406,-3.394531 1.078125,-3.4375 1.210938,-3.476562 1.363281,-3.5 1.53125,-3.5 c 0.15625,0 0.300781,0.023438 0.4375,0.0625 0.132812,0.03125 0.253906,0.085938 0.359375,0.15625 0.101563,0.074219 0.1875,0.167969 0.25,0.28125 0.0625,0.105469 0.09375,0.234375 0.09375,0.390625 H 2.140625 C 2.128906,-2.785156 2.066406,-2.90625 1.953125,-2.96875 1.835938,-3.039062 1.695312,-3.078125 1.53125,-3.078125 c -0.179688,0 -0.324219,0.042969 -0.4375,0.125 -0.105469,0.074219 -0.15625,0.195313 -0.15625,0.359375 0,0.105469 0.023438,0.195312 0.078125,0.265625 0.050781,0.0625 0.132813,0.121094 0.25,0.171875 0.125,0.042969 0.28125,0.09375 0.46875,0.15625 0.21875,0.054688 0.40625,0.125 0.5625,0.21875 0.15625,0.085938 0.269531,0.195312 0.34375,0.328125 0.082031,0.136719 0.125,0.308594 0.125,0.515625 0,0.230469 -0.058594,0.417969 -0.171875,0.5625 -0.105469,0.148438 -0.25,0.257812 -0.4375,0.328125 -0.179688,0.0625 -0.375,0.09375 -0.59375,0.09375 z m 0,0"
           id="path15-9" /></g><g
         id="glyph-1-7-5"><path
           d="m 1.734375,0.046875 c -0.28125,0 -0.53125,-0.0664062 -0.75,-0.203125 C 0.773438,-0.289062 0.613281,-0.488281 0.5,-0.75 0.382812,-1.007812 0.328125,-1.332031 0.328125,-1.71875 0.328125,-2.101562 0.382812,-2.425781 0.5,-2.6875 0.613281,-2.957031 0.773438,-3.160156 0.984375,-3.296875 1.191406,-3.429688 1.441406,-3.5 1.734375,-3.5 c 0.21875,0 0.414063,0.039062 0.59375,0.109375 0.1875,0.074219 0.332031,0.183594 0.4375,0.328125 0.113281,0.148438 0.179687,0.328125 0.203125,0.546875 H 2.421875 C 2.398438,-2.679688 2.332031,-2.8125 2.21875,-2.90625 2.101562,-3.007812 1.941406,-3.0625 1.734375,-3.0625 c -0.292969,0 -0.507813,0.121094 -0.640625,0.359375 -0.136719,0.242187 -0.203125,0.570313 -0.203125,0.984375 0,0.28125 0.03125,0.523438 0.09375,0.71875 0.0625,0.199219 0.15625,0.351562 0.28125,0.453125 0.125,0.105469 0.28125,0.15625 0.46875,0.15625 0.21875,0 0.382813,-0.046875 0.5,-0.140625 0.113281,-0.101562 0.1875,-0.253906 0.21875,-0.453125 H 3 c -0.042969,0.34375 -0.179688,0.605469 -0.40625,0.78125 -0.230469,0.1679688 -0.515625,0.25 -0.859375,0.25 z m 0,0"
           id="path16-30" /></g><g
         id="glyph-1-8-99"><path
           d="M 1.734375,0.046875 C 1.429688,0.046875 1.175781,-0.0195312 0.96875,-0.15625 0.757812,-0.300781 0.597656,-0.503906 0.484375,-0.765625 0.378906,-1.023438 0.328125,-1.34375 0.328125,-1.71875 c 0,-0.375 0.050781,-0.691406 0.15625,-0.953125 C 0.597656,-2.941406 0.757812,-3.144531 0.96875,-3.28125 1.175781,-3.425781 1.429688,-3.5 1.734375,-3.5 c 0.3125,0 0.570313,0.074219 0.78125,0.21875 0.207031,0.136719 0.367187,0.339844 0.484375,0.609375 0.113281,0.261719 0.171875,0.578125 0.171875,0.953125 0,0.375 -0.058594,0.695312 -0.171875,0.953125 -0.117188,0.261719 -0.277344,0.464844 -0.484375,0.609375 -0.210937,0.1367188 -0.46875,0.203125 -0.78125,0.203125 z m 0,-0.421875 c 0.21875,0 0.390625,-0.054688 0.515625,-0.171875 0.132812,-0.113281 0.226562,-0.269531 0.28125,-0.46875 0.050781,-0.207031 0.078125,-0.441406 0.078125,-0.703125 0,-0.257812 -0.027344,-0.488281 -0.078125,-0.6875 C 2.476562,-2.613281 2.382812,-2.773438 2.25,-2.890625 2.125,-3.003906 1.953125,-3.0625 1.734375,-3.0625 c -0.210937,0 -0.375,0.058594 -0.5,0.171875 -0.125,0.117187 -0.214844,0.273437 -0.265625,0.46875 -0.054688,0.199219 -0.078125,0.433594 -0.078125,0.703125 0,0.261719 0.023437,0.496094 0.078125,0.703125 0.050781,0.199219 0.140625,0.355469 0.265625,0.46875 0.125,0.117187 0.289063,0.171875 0.5,0.171875 z m 0,0"
           id="path17-5" /></g><g
         id="glyph-1-9-11"><path
           d="m 0.5,0 v -3.4375 h 0.53125 l 0.015625,0.5 c 0.09375,-0.132812 0.222656,-0.257812 0.390625,-0.375 0.175781,-0.113281 0.394531,-0.171875 0.65625,-0.171875 0.332031,0 0.570312,0.105469 0.71875,0.3125 0.15625,0.199219 0.234375,0.480469 0.234375,0.84375 V 0 H 2.5 V -2.25 C 2.5,-2.394531 2.484375,-2.523438 2.453125,-2.640625 2.421875,-2.753906 2.367188,-2.847656 2.296875,-2.921875 2.222656,-2.992188 2.109375,-3.03125 1.953125,-3.03125 1.742188,-3.03125 1.5625,-2.972656 1.40625,-2.859375 1.257812,-2.753906 1.140625,-2.632812 1.046875,-2.5 V 0 Z m 0,0"
           id="path18-12" /></g><g
         id="glyph-1-10-33"><path
           d="m 1.515625,0.046875 c -0.242187,0 -0.449219,-0.0625 -0.625,-0.1875 C 0.710938,-0.273438 0.570312,-0.472656 0.46875,-0.734375 0.375,-1.003906 0.328125,-1.332031 0.328125,-1.71875 c 0,-0.40625 0.050781,-0.738281 0.15625,-1 C 0.585938,-2.976562 0.726562,-3.171875 0.90625,-3.296875 1.09375,-3.429688 1.3125,-3.5 1.5625,-3.5 c 0.21875,0 0.410156,0.054688 0.578125,0.15625 0.164063,0.105469 0.289063,0.246094 0.375,0.421875 V -4.5625 H 3.0625 V 0 H 2.546875 L 2.515625,-0.484375 C 2.410156,-0.328125 2.273438,-0.195312 2.109375,-0.09375 1.941406,0 1.742188,0.046875 1.515625,0.046875 Z m 0.125,-0.4375 c 0.207031,0 0.382813,-0.050781 0.53125,-0.15625 0.144531,-0.113281 0.257813,-0.25 0.34375,-0.40625 v -1.46875 C 2.429688,-2.609375 2.320312,-2.757812 2.1875,-2.875 2.050781,-2.988281 1.878906,-3.046875 1.671875,-3.046875 c -0.261719,0 -0.460937,0.109375 -0.59375,0.328125 -0.125,0.21875 -0.1875,0.554688 -0.1875,1 0,0.429688 0.0625,0.757812 0.1875,0.984375 0.132813,0.230469 0.320313,0.34375 0.5625,0.34375 z m 0,0"
           id="path19-97" /></g><g
         id="glyph-1-11-23"><path
           d="M 0.40625,1.203125 C 0.644531,0.742188 0.820312,0.257812 0.9375,-0.25 1.0625,-0.757812 1.125,-1.289062 1.125,-1.84375 1.125,-2.3125 1.054688,-2.785156 0.921875,-3.265625 0.796875,-3.742188 0.625,-4.1875 0.40625,-4.59375 h 0.453125 c 0.164063,0.3125 0.304687,0.621094 0.421875,0.921875 0.125,0.292969 0.21875,0.601563 0.28125,0.921875 0.0625,0.3125 0.09375,0.65625 0.09375,1.03125 0,0.355469 -0.03125,0.699219 -0.09375,1.03125 C 1.5,-0.351562 1.410156,-0.03125 1.296875,0.28125 1.179688,0.601562 1.035156,0.910156 0.859375,1.203125 Z m 0,0"
           id="path20-30" /></g><g
         id="glyph-2-0-48"><path
           d="M 0.015625,0 2.1875,-6.4375 h 0.875 L 5.21875,0 H 4.359375 l -0.5625,-1.84375 H 1.453125 L 0.875,0 Z m 1.65625,-2.53125 H 3.59375 L 2.625,-5.625 Z m 0,0"
           id="path21-43" /></g><g
         id="glyph-2-1-9"><path
           d="M 0.78125,0 V -6.4375 H 1.6875 l 2.046875,3.828125 H 3.390625 L 5.40625,-6.4375 H 6.296875 V 0 h -0.8125 V -5.734375 H 5.78125 L 3.828125,-2.03125 H 3.25 L 1.265625,-5.734375 H 1.5625 V 0 Z m 0,0"
           id="path22-24" /></g><g
         id="glyph-2-2-90"><path
           d="m 0.78125,0 v -6.4375 h 1.984375 c 0.613281,0 1.132813,0.132812 1.5625,0.390625 0.425781,0.25 0.753906,0.617187 0.984375,1.09375 0.226562,0.480469 0.34375,1.058594 0.34375,1.734375 0,0.679688 -0.117188,1.257812 -0.34375,1.734375 C 5.082031,-1.003906 4.75,-0.632812 4.3125,-0.375 3.882812,-0.125 3.367188,0 2.765625,0 Z M 1.609375,-0.6875 H 2.59375 c 0.476562,0 0.878906,-0.082031 1.203125,-0.25 0.320313,-0.175781 0.566406,-0.445312 0.734375,-0.8125 0.175781,-0.375 0.265625,-0.863281 0.265625,-1.46875 0,-0.601562 -0.089844,-1.085938 -0.265625,-1.453125 -0.179688,-0.375 -0.429688,-0.644531 -0.75,-0.8125 C 3.457031,-5.660156 3.0625,-5.75 2.59375,-5.75 H 1.609375 Z m 0,0"
           id="path23-57" /></g><g
         id="glyph-2-3-4" /><g
         id="glyph-2-4-7"><path
           d="m 0.78125,0 v -6.4375 h 2.1875 c 0.34375,0 0.65625,0.0625 0.9375,0.1875 0.289062,0.117188 0.519531,0.296875 0.6875,0.546875 0.164062,0.25 0.25,0.574219 0.25,0.96875 0,0.40625 -0.105469,0.757813 -0.3125,1.046875 -0.199219,0.28125 -0.5,0.46875 -0.90625,0.5625 0.226562,0.042969 0.414062,0.132812 0.5625,0.265625 0.144531,0.125 0.257812,0.292969 0.34375,0.5 C 4.625,-2.148438 4.703125,-1.90625 4.765625,-1.625 L 5.15625,0 H 4.296875 L 3.96875,-1.5 C 3.90625,-1.757812 3.832031,-1.984375 3.75,-2.171875 3.675781,-2.359375 3.570312,-2.5 3.4375,-2.59375 3.300781,-2.695312 3.113281,-2.75 2.875,-2.75 H 1.609375 V 0 Z M 1.609375,-3.4375 H 2.84375 c 0.21875,0 0.414062,-0.046875 0.59375,-0.140625 0.175781,-0.09375 0.316406,-0.226563 0.421875,-0.40625 0.101563,-0.175781 0.15625,-0.382813 0.15625,-0.625 0,-0.363281 -0.101563,-0.644531 -0.296875,-0.84375 C 3.53125,-5.648438 3.25,-5.75 2.875,-5.75 H 1.609375 Z m 0,0"
           id="path24-66" /></g><g
         id="glyph-2-5-30"><path
           d="M 0.453125,1.71875 V 1.078125 h 0.375 c 0.15625,0 0.285156,-0.054687 0.390625,-0.15625 C 1.332031,0.828125 1.429688,0.664062 1.515625,0.4375 L 1.671875,0 0,-4.859375 H 0.8125 L 2.09375,-0.8125 3.265625,-4.859375 H 4.0625 L 2.484375,0 2.28125,0.546875 C 2.1875,0.816406 2.082031,1.035156 1.96875,1.203125 1.863281,1.378906 1.722656,1.507812 1.546875,1.59375 1.378906,1.675781 1.164062,1.71875 0.90625,1.71875 Z m 0,0"
           id="path25-90" /></g><g
         id="glyph-2-6-8"><path
           d="M 0.296875,0 V -0.59375 L 2.625,-4.234375 H 0.484375 v -0.625 h 3 V -4.3125 L 1.15625,-0.625 H 3.609375 V 0 Z m 0,0"
           id="path26-01" /></g><g
         id="glyph-2-7-5"><path
           d="m 2.5,0.078125 c -0.46875,0 -0.855469,-0.1015625 -1.15625,-0.3125 -0.292969,-0.21875 -0.511719,-0.507813 -0.65625,-0.875 -0.148438,-0.363281 -0.21875,-0.78125 -0.21875,-1.25 0,-0.519531 0.066406,-0.972656 0.203125,-1.359375 C 0.816406,-4.101562 1.03125,-4.398438 1.3125,-4.609375 1.601562,-4.828125 1.972656,-4.9375 2.421875,-4.9375 c 0.570313,0 1.023437,0.203125 1.359375,0.609375 0.34375,0.40625 0.515625,0.992187 0.515625,1.75 0,0.042969 -0.00781,0.09375 -0.015625,0.15625 0,0.054687 0,0.09375 0,0.125 H 1.25 c 0,0.335937 0.039062,0.636719 0.125,0.90625 0.082031,0.273437 0.210938,0.484375 0.390625,0.640625 0.1875,0.15625 0.429687,0.234375 0.734375,0.234375 0.289062,0 0.507812,-0.054687 0.65625,-0.171875 0.15625,-0.125 0.265625,-0.300781 0.328125,-0.53125 h 0.78125 C 4.210938,-0.945312 4.113281,-0.710938 3.96875,-0.515625 3.820312,-0.328125 3.625,-0.179688 3.375,-0.078125 3.132812,0.0234375 2.84375,0.078125 2.5,0.078125 Z m -1.25,-2.9375 H 3.53125 C 3.519531,-3.347656 3.414062,-3.71875 3.21875,-3.96875 c -0.1875,-0.25 -0.453125,-0.375 -0.796875,-0.375 -0.355469,0 -0.632813,0.121094 -0.828125,0.359375 -0.199219,0.242187 -0.3125,0.617187 -0.34375,1.125 z m 0,0"
           id="path27-10" /></g><g
         id="glyph-2-8-39"><path
           d="m 0.703125,0 v -4.859375 h 0.75 l 0.03125,0.71875 c 0.125,-0.1875 0.304687,-0.363281 0.546875,-0.53125 0.25,-0.164063 0.5625,-0.25 0.9375,-0.25 0.457031,0 0.789062,0.148437 1,0.4375 0.21875,0.28125 0.328125,0.679687 0.328125,1.1875 V 0 h -0.78125 v -3.1875 c 0,-0.195312 -0.023437,-0.378906 -0.0625,-0.546875 C 3.421875,-3.898438 3.347656,-4.03125 3.234375,-4.125 3.128906,-4.226562 2.972656,-4.28125 2.765625,-4.28125 c -0.304687,0 -0.5625,0.078125 -0.78125,0.234375 -0.210937,0.15625 -0.375,0.324219 -0.5,0.5 V 0 Z m 0,0"
           id="path28-58" /></g><g
         id="glyph-2-9-96"><path
           d="M 2.484375,0.09375 C 2.097656,0.09375 1.75,0.0195312 1.4375,-0.125 1.125,-0.269531 0.875,-0.472656 0.6875,-0.734375 0.507812,-1.003906 0.421875,-1.320312 0.421875,-1.6875 H 1.21875 c 0,0.335938 0.113281,0.605469 0.34375,0.8125 0.238281,0.199219 0.546875,0.296875 0.921875,0.296875 0.394531,0 0.703125,-0.117187 0.921875,-0.359375 0.21875,-0.25 0.328125,-0.609375 0.328125,-1.078125 0,-0.46875 -0.109375,-0.8125 -0.328125,-1.03125 -0.21875,-0.226563 -0.515625,-0.34375 -0.890625,-0.34375 -0.273437,0 -0.5,0.042969 -0.6875,0.125 C 1.648438,-3.179688 1.5,-3.0625 1.375,-2.90625 H 0.671875 L 0.953125,-6.25 h 3.15625 v 0.703125 H 1.5625 l -0.171875,2 c 0.113281,-0.132813 0.269531,-0.25 0.46875,-0.34375 0.195313,-0.101563 0.453125,-0.15625 0.765625,-0.15625 0.351562,0 0.671875,0.074219 0.953125,0.21875 0.289063,0.148437 0.523437,0.371094 0.703125,0.671875 0.175781,0.292969 0.265625,0.671875 0.265625,1.140625 0,0.460937 -0.089844,0.84375 -0.265625,1.15625 -0.179688,0.3125 -0.421875,0.554687 -0.734375,0.71875 -0.3125,0.15625 -0.667969,0.234375 -1.0625,0.234375 z m 0,0"
           id="path29-25" /></g><g
         id="glyph-2-10-76"><path
           d="m 2.609375,0.09375 c -0.4375,0 -0.828125,-0.1015625 -1.171875,-0.3125 C 1.09375,-0.4375 0.820312,-0.78125 0.625,-1.25 0.425781,-1.71875 0.328125,-2.328125 0.328125,-3.078125 c 0,-0.738281 0.09375,-1.347656 0.28125,-1.828125 0.1875,-0.476562 0.453125,-0.832031 0.796875,-1.0625 0.34375,-0.238281 0.742188,-0.359375 1.203125,-0.359375 0.5,0 0.921875,0.132813 1.265625,0.390625 0.34375,0.261719 0.5625,0.65625 0.65625,1.1875 H 3.75 C 3.6875,-5.039062 3.554688,-5.265625 3.359375,-5.421875 c -0.1875,-0.15625 -0.4375,-0.234375 -0.75,-0.234375 -0.460937,0 -0.824219,0.210938 -1.09375,0.625 C 1.253906,-4.625 1.125,-3.972656 1.125,-3.078125 v 0.234375 c 0,0.5625 0.066406,1.011719 0.203125,1.34375 0.132813,0.324219 0.316406,0.558594 0.546875,0.703125 0.226562,0.148437 0.472656,0.21875 0.734375,0.21875 0.414063,0 0.722656,-0.128906 0.921875,-0.390625 0.207031,-0.257812 0.3125,-0.582031 0.3125,-0.96875 0,-0.394531 -0.101562,-0.703125 -0.296875,-0.921875 -0.199219,-0.226563 -0.476563,-0.34375 -0.828125,-0.34375 -0.417969,0 -0.78125,0.101563 -1.09375,0.296875 -0.3125,0.1875 -0.546875,0.414062 -0.703125,0.671875 L 0.828125,-2.84375 c 0.132813,-0.1875 0.300781,-0.359375 0.5,-0.515625 C 1.523438,-3.523438 1.75,-3.65625 2,-3.75 c 0.25,-0.09375 0.523438,-0.140625 0.828125,-0.140625 0.34375,0 0.648437,0.078125 0.921875,0.234375 0.28125,0.148438 0.5,0.359375 0.65625,0.640625 0.15625,0.28125 0.234375,0.632813 0.234375,1.046875 0,0.398438 -0.078125,0.75 -0.234375,1.0625 C 4.25,-0.59375 4.019531,-0.347656 3.71875,-0.171875 3.414062,0.00390625 3.046875,0.09375 2.609375,0.09375 Z m 0,0"
           id="path30-38" /></g><g
         id="glyph-2-11-59"><path
           d="m 2.484375,0.09375 c -0.667969,0 -1.171875,-0.253906 -1.515625,-0.765625 -0.335938,-0.519531 -0.5,-1.332031 -0.5,-2.4375 0,-1.101563 0.164062,-1.914063 0.5,-2.4375 0.34375,-0.519531 0.847656,-0.78125 1.515625,-0.78125 0.675781,0 1.179687,0.261719 1.515625,0.78125 0.332031,0.523437 0.5,1.328125 0.5,2.421875 0,1.105469 -0.167969,1.917969 -0.5,2.4375 -0.335938,0.523438 -0.839844,0.78125 -1.515625,0.78125 z m 0,-0.671875 c 0.414063,0 0.71875,-0.207031 0.90625,-0.625 0.1875,-0.425781 0.28125,-1.066406 0.28125,-1.921875 0,-0.851562 -0.09375,-1.488281 -0.28125,-1.90625 -0.1875,-0.414062 -0.492187,-0.625 -0.90625,-0.625 -0.417969,0 -0.71875,0.210938 -0.90625,0.625 -0.1875,0.417969 -0.28125,1.054688 -0.28125,1.90625 0,0.855469 0.09375,1.496094 0.28125,1.921875 0.1875,0.417969 0.488281,0.625 0.90625,0.625 z m 0,0"
           id="path31-30" /></g><g
         id="glyph-2-12-2"><path
           d="M 0.0625,0 2,-3.328125 0.203125,-6.4375 h 0.9375 L 2.46875,-3.90625 3.859375,-6.4375 h 0.90625 l -1.8125,3.125 L 4.90625,0 H 3.921875 L 2.46875,-2.6875 0.96875,0 Z m 0,0"
           id="path32-515" /></g></g></defs><g
     id="g1"
     transform="matrix(0.49293339,0,0,0.4800174,-24.884371,-145.56612)"
     style="stroke-width:0.725235"><path
       fill-rule="evenodd"
       fill="#ffffff"
       fill-opacity="1"
       d="M 50.671875,579.03906 H 544.48437 V 303.44141 H 50.671875 Z m 0,0"
       id="path33-7"
       style="stroke-width:0.725235" /><path
       fill="none"
       stroke-width="0.379312"
       stroke-linecap="butt"
       stroke-linejoin="round"
       stroke="#f2f2f2"
       stroke-opacity="1"
       stroke-miterlimit="10"
       d="M 94.589844,512.49922 V 293.67109 M 117.60156,512.49922 V 293.67109 m 23.09766,218.82813 V 293.67109 m 46.01953,218.82813 V 293.67109 m 23.01953,218.82813 V 293.67109 M 232.75,512.49922 V 293.67109 m 46.03125,218.82813 V 293.67109 m 23.00781,218.82813 V 293.67109 m 23.01172,218.82813 V 293.67109 m 46.10938,218.82813 V 293.67109 m 23.01171,218.82813 V 293.67109 m 23.01954,218.82813 V 293.67109 m 46.01953,218.82813 V 293.67109 m 23.01953,218.82813 V 293.67109 m 23.00781,218.82813 V 293.67109"
       transform="matrix(1,0,0,-1,0,841.8)"
       id="path34-79" /><path
       fill="none"
       stroke-width="0.379312"
       stroke-linecap="butt"
       stroke-linejoin="round"
       stroke="#d9d9d9"
       stroke-opacity="1"
       stroke-miterlimit="10"
       d="M 163.71094,512.49922 V 293.67109 m 92.05078,218.82813 V 293.67109 m 92.13672,218.82813 V 293.67109 m 92.05078,218.82813 V 293.67109 m 92.08984,218.82813 V 293.67109"
       transform="matrix(1,0,0,-1,0,841.8)"
       id="path35-4" /><path
       fill-rule="nonzero"
       fill="#156082"
       fill-opacity="1"
       d="M 71.589844,477.51953 H 507.64844 V 399.94531 H 71.589844 Z m 0,0"
       id="path36-17"
       style="stroke-width:0.725235" /><path
       fill="none"
       stroke-width="0.379312"
       stroke-linecap="butt"
       stroke-linejoin="round"
       stroke="#d9d9d9"
       stroke-opacity="1"
       stroke-miterlimit="10"
       d="M 71.589844,293.67109 V 512.49922"
       transform="matrix(1,0,0,-1,0,841.8)"
       id="path37-85" /><g
       fill="#595959"
       fill-opacity="1"
       id="g37"
       style="stroke-width:0.725235"><use
         xlink:href="#glyph-0-0-05"
         x="70.008003"
         y="557.97998"
         id="use37"
         style="stroke-width:0.725235" /></g><g
       fill="#595959"
       fill-opacity="1"
       id="g39"
       style="stroke-width:0.725235"><use
         xlink:href="#glyph-0-1-20"
         x="160.53999"
         y="557.97998"
         id="use38"
         style="stroke-width:0.725235" /><use
         xlink:href="#glyph-0-0-05"
         x="163.70802"
         y="557.97998"
         id="use39"
         style="stroke-width:0.725235" /></g><g
       fill="#595959"
       fill-opacity="1"
       id="g42"
       style="stroke-width:0.725235"><use
         xlink:href="#glyph-0-2-28"
         x="251.03999"
         y="557.97998"
         id="use40"
         style="stroke-width:0.725235" /><use
         xlink:href="#glyph-0-3-6"
         x="254.23199"
         y="557.97998"
         id="use41"
         style="stroke-width:0.725235" /><use
         xlink:href="#glyph-0-0-05"
         x="257.42398"
         y="557.97998"
         id="use42"
         style="stroke-width:0.725235" /></g><g
       fill="#595959"
       fill-opacity="1"
       id="g45"
       style="stroke-width:0.725235"><use
         xlink:href="#glyph-0-2-28"
         x="343.14999"
         y="557.97998"
         id="use43"
         style="stroke-width:0.725235" /><use
         xlink:href="#glyph-0-4-0"
         x="346.34201"
         y="557.97998"
         id="use44"
         style="stroke-width:0.725235" /><use
         xlink:href="#glyph-0-0-05"
         x="349.534"
         y="557.97998"
         id="use45"
         style="stroke-width:0.725235" /></g><g
       fill="#595959"
       fill-opacity="1"
       id="g48"
       style="stroke-width:0.725235"><use
         xlink:href="#glyph-0-3-6"
         x="435.26001"
         y="557.97998"
         id="use46"
         style="stroke-width:0.725235" /><use
         xlink:href="#glyph-0-5-37"
         x="438.452"
         y="557.97998"
         id="use47"
         style="stroke-width:0.725235" /><use
         xlink:href="#glyph-0-0-05"
         x="441.64398"
         y="557.97998"
         id="use48"
         style="stroke-width:0.725235" /></g><g
       fill="#595959"
       fill-opacity="1"
       id="g51"
       style="stroke-width:0.725235"><use
         xlink:href="#glyph-0-6-20"
         x="527.38"
         y="557.97998"
         id="use49"
         style="stroke-width:0.725235" /><use
         xlink:href="#glyph-0-0-05"
         x="530.57202"
         y="557.97998"
         id="use50"
         style="stroke-width:0.725235" /><use
         xlink:href="#glyph-0-0-05"
         x="533.76398"
         y="557.97998"
         id="use51"
         style="stroke-width:0.725235" /></g><g
       fill="#595959"
       fill-opacity="1"
       id="g54"
       style="stroke-width:0.725235"><use
         xlink:href="#glyph-0-7-5"
         x="55.200001"
         y="440.45001"
         id="use52"
         style="stroke-width:0.725235" /><use
         xlink:href="#glyph-0-2-28"
         x="57.80323"
         y="440.45001"
         id="use53"
         style="stroke-width:0.725235" /><use
         xlink:href="#glyph-0-8-81"
         x="60.991249"
         y="440.45001"
         id="use54"
         style="stroke-width:0.725235" /></g><g
       fill="#595959"
       fill-opacity="1"
       id="g55"
       style="stroke-width:0.725235"><use
         xlink:href="#glyph-0-0-05"
         x="62.68272"
         y="440.45001"
         id="use55"
         style="stroke-width:0.725235" /></g><g
       fill="#595959"
       fill-opacity="1"
       id="g57"
       style="stroke-width:0.725235"><use
         xlink:href="#glyph-1-0-65"
         x="280.66"
         y="568.41998"
         id="use56"
         style="stroke-width:0.725235" /><use
         xlink:href="#glyph-1-1-65"
         x="283.68408"
         y="568.41998"
         id="use57"
         style="stroke-width:0.725235" /></g><g
       fill="#595959"
       fill-opacity="1"
       id="g60"
       style="stroke-width:0.725235"><use
         xlink:href="#glyph-1-2-21"
         x="285.28632"
         y="568.41998"
         id="use58"
         style="stroke-width:0.725235" /><use
         xlink:href="#glyph-1-3-8"
         x="290.72412"
         y="568.41998"
         id="use59"
         style="stroke-width:0.725235" /><use
         xlink:href="#glyph-1-4-7"
         x="294.0881"
         y="568.41998"
         id="use60"
         style="stroke-width:0.725235" /></g><g
       fill="#595959"
       fill-opacity="1"
       id="g62"
       style="stroke-width:0.725235"><use
         xlink:href="#glyph-1-5-40"
         x="295.43369"
         y="568.41998"
         id="use61"
         style="stroke-width:0.725235" /><use
         xlink:href="#glyph-1-6-9"
         x="297.54224"
         y="568.41998"
         id="use62"
         style="stroke-width:0.725235" /></g><g
       fill="#595959"
       fill-opacity="1"
       id="g64"
       style="stroke-width:0.725235"><use
         xlink:href="#glyph-1-3-8"
         x="300.63568"
         y="568.41998"
         id="use63"
         style="stroke-width:0.725235" /><use
         xlink:href="#glyph-1-7-5"
         x="303.99963"
         y="568.41998"
         id="use64"
         style="stroke-width:0.725235" /></g><g
       fill="#595959"
       fill-opacity="1"
       id="g65"
       style="stroke-width:0.725235"><use
         xlink:href="#glyph-1-8-99"
         x="307.34973"
         y="568.41998"
         id="use65"
         style="stroke-width:0.725235" /></g><g
       fill="#595959"
       fill-opacity="1"
       id="g67"
       style="stroke-width:0.725235"><use
         xlink:href="#glyph-1-9-11"
         x="310.87323"
         y="568.41998"
         id="use66"
         style="stroke-width:0.725235" /><use
         xlink:href="#glyph-1-10-33"
         x="314.38977"
         y="568.41998"
         id="use67"
         style="stroke-width:0.725235" /></g><g
       fill="#595959"
       fill-opacity="1"
       id="g68"
       style="stroke-width:0.725235"><use
         xlink:href="#glyph-1-6-9"
         x="317.99649"
         y="568.41998"
         id="use68"
         style="stroke-width:0.725235" /></g><g
       fill="#595959"
       fill-opacity="1"
       id="g69"
       style="stroke-width:0.725235"><use
         xlink:href="#glyph-1-11-23"
         x="321.08301"
         y="568.41998"
         id="use69"
         style="stroke-width:0.725235" /></g><g
       fill="#595959"
       fill-opacity="1"
       id="g71"
       style="stroke-width:0.725235"><use
         xlink:href="#glyph-2-0-48"
         x="259.44"
         y="317.89999"
         id="use70"
         style="stroke-width:0.725235" /><use
         xlink:href="#glyph-2-1-9"
         x="264.66891"
         y="317.89999"
         id="use71"
         style="stroke-width:0.725235" /></g><g
       fill="#595959"
       fill-opacity="1"
       id="g72"
       style="stroke-width:0.725235"><use
         xlink:href="#glyph-2-2-90"
         x="271.78772"
         y="317.89999"
         id="use72"
         style="stroke-width:0.725235" /></g><g
       fill="#595959"
       fill-opacity="1"
       id="g73"
       style="stroke-width:0.725235"><use
         xlink:href="#glyph-2-3-4"
         x="277.88812"
         y="317.89999"
         id="use73"
         style="stroke-width:0.725235" /></g><g
       fill="#595959"
       fill-opacity="1"
       id="g75"
       style="stroke-width:0.725235"><use
         xlink:href="#glyph-2-4-7"
         x="279.6409"
         y="317.89999"
         id="use74"
         style="stroke-width:0.725235" /><use
         xlink:href="#glyph-2-5-30"
         x="285.07547"
         y="317.89999"
         id="use75"
         style="stroke-width:0.725235" /></g><g
       fill="#595959"
       fill-opacity="1"
       id="g76"
       style="stroke-width:0.725235"><use
         xlink:href="#glyph-2-6-8"
         x="289.07059"
         y="317.89999"
         id="use76"
         style="stroke-width:0.725235" /></g><g
       fill="#595959"
       fill-opacity="1"
       id="g79"
       style="stroke-width:0.725235"><use
         xlink:href="#glyph-2-7-5"
         x="292.84052"
         y="317.89999"
         id="use77"
         style="stroke-width:0.725235" /><use
         xlink:href="#glyph-2-8-39"
         x="297.58963"
         y="317.89999"
         id="use78"
         style="stroke-width:0.725235" /><use
         xlink:href="#glyph-2-3-4"
         x="302.55417"
         y="317.89999"
         id="use79"
         style="stroke-width:0.725235" /></g><g
       fill="#595959"
       fill-opacity="1"
       id="g83-7"
       style="stroke-width:0.725235"><use
         xlink:href="#glyph-2-9-96"
         x="304.31674"
         y="317.89999"
         id="use80"
         style="stroke-width:0.725235" /><use
         xlink:href="#glyph-2-3-4"
         x="309.28128"
         y="317.89999"
         id="use81"
         style="stroke-width:0.725235" /><use
         xlink:href="#glyph-2-9-96"
         x="311.1124"
         y="317.89999"
         id="use82"
         style="stroke-width:0.725235" /><use
         xlink:href="#glyph-2-10-76"
         x="316.07693"
         y="317.89999"
         id="use83"
         style="stroke-width:0.725235" /></g><g
       fill="#595959"
       fill-opacity="1"
       id="g85"
       style="stroke-width:0.725235"><use
         xlink:href="#glyph-2-11-59"
         x="320.99252"
         y="317.89999"
         id="use84"
         style="stroke-width:0.725235" /><use
         xlink:href="#glyph-2-11-59"
         x="325.95706"
         y="317.89999"
         id="use85"
         style="stroke-width:0.725235" /></g><g
       fill="#595959"
       fill-opacity="1"
       id="g86"
       style="stroke-width:0.725235"><use
         xlink:href="#glyph-2-12-2"
         x="330.88245"
         y="317.89999"
         id="use86"
         style="stroke-width:0.725235" /></g><path
       fill="none"
       stroke-width="0.379312"
       stroke-linecap="butt"
       stroke-linejoin="round"
       stroke="#d9d9d9"
       stroke-opacity="1"
       stroke-miterlimit="10"
       d="M 50.671875,262.76094 H 544.48437 V 538.35859 H 50.671875 Z m 0,0"
       transform="matrix(1,0,0,-1,0,841.8)"
       id="path86-8" /></g></svg>
